<svg width="16" height="16" viewBox="0 0 16 16" fill="none" xmlns="http://www.w3.org/2000/svg">
<g clip-path="url(#clip0)">
<path d="M7.08532 0.05136C3.4767 0.453922 0.545852 3.31905 0.0712585 6.91886C-0.601179 12.0201 3.56932 16.36 8.62091 15.9766C10.4792 15.8356 12.2185 15.0052 13.5814 13.7342L13.6985 13.625C13.8331 13.4995 13.8405 13.2885 13.7149 13.1539L13.2601 12.6662C13.1345 12.5315 12.9236 12.5242 12.7889 12.6498L12.5451 12.8772C11.0292 14.2907 8.9481 14.9266 6.84873 14.5691C3.87326 14.0623 1.58588 11.5362 1.35354 8.52683C1.04632 4.54736 4.25632 1.22189 8.19748 1.33642C11.8315 1.44208 14.6665 4.54317 14.6665 8.1787V8.66689C14.6665 9.44608 13.9951 10.071 13.2002 9.99377C12.5075 9.92639 11.9999 9.3038 11.9999 8.6078V5.66692C11.9999 5.4828 11.8506 5.33358 11.6665 5.33358H10.9999C10.866 5.33358 10.7523 5.41358 10.6993 5.52742C10.0285 4.79577 9.06835 4.33358 7.99985 4.33358C5.97804 4.33358 4.3332 5.97842 4.3332 8.00024C4.3332 10.022 5.97804 11.6669 7.99985 11.6669C9.27345 11.6669 10.3964 11.0135 11.054 10.025C11.549 10.8524 12.4689 11.3976 13.5159 11.3275C14.9316 11.2326 15.9999 9.99164 15.9999 8.57277V8.00024C15.9999 3.2878 11.9039 -0.486203 7.08532 0.05136ZM7.99985 10.3336C6.71338 10.3336 5.66651 9.2867 5.66651 8.00024C5.66651 6.71377 6.71338 5.66689 7.99985 5.66689C9.28632 5.66689 10.3332 6.71377 10.3332 8.00024C10.3332 9.2867 9.28632 10.3336 7.99985 10.3336Z" fill="#DDDDDD"/>
</g>
<defs>
<clipPath id="clip0">
<rect width="16" height="16" fill="white"/>
</clipPath>
</defs>
</svg>
