<svg width="16" height="16" viewBox="0 0 16 16" fill="none" xmlns="http://www.w3.org/2000/svg">
<g clip-path="url(#clip0)">
<path d="M12.3213 1.86278L1.97112 5.31284C1.8069 5.36719 1.66228 5.46861 1.55524 5.60449C1.4482 5.74037 1.38346 5.90472 1.36908 6.0771C1.35452 6.24977 1.39113 6.42291 1.47434 6.57491C1.55755 6.72691 1.68368 6.85104 1.83699 6.93181L6.12305 9.17779L8.36902 13.4639C8.43352 13.586 8.52579 13.6912 8.63839 13.7712C8.751 13.8511 8.8808 13.9035 9.01736 13.9242C9.15391 13.9448 9.2934 13.9331 9.4246 13.89C9.5558 13.8469 9.67505 13.7736 9.77276 13.676C9.87055 13.5789 9.94427 13.4604 9.988 13.3297L13.4381 2.97953C13.4901 2.82396 13.4978 2.65696 13.4602 2.49728C13.4226 2.3376 13.3413 2.19156 13.2253 2.07556C13.1093 1.95956 12.9632 1.8782 12.8036 1.84061C12.6439 1.80303 12.4769 1.8107 12.3213 1.86278ZM9.15823 13.049L6.97777 8.94695L9.5544 6.37032C9.63713 6.28759 9.68361 6.17538 9.68361 6.05838C9.68361 5.94138 9.63713 5.82917 9.5544 5.74644C9.47167 5.66371 9.35946 5.61723 9.24246 5.61723C9.12546 5.61723 9.01325 5.66371 8.93052 5.74644L6.35389 8.32307L2.24875 6.15196L12.5989 2.7019L9.15823 13.049Z" fill="#777777"/>
</g>
<defs>
<clipPath id="clip0">
<rect width="16" height="16" fill="white"/>
</clipPath>
</defs>
</svg>
