<svg xmlns="http://www.w3.org/2000/svg" id="Layer_1" data-name="Layer 1" viewBox="0 0 850.39 302.87"><defs><style>      .cls-1 {        fill: #e24480;      }      .cls-2 {        font-family: Corbel-Bold, Corbel;        font-size: 68.6px;        font-weight: 700;      }      .cls-2, .cls-3 {        fill: #12284d;      }      .cls-4 {        letter-spacing: .15em;      }      .cls-5 {        letter-spacing: .1em;      }      .cls-6 {        letter-spacing: .15em;      }      .cls-7 {        fill: #58c6da;      }      .cls-8 {        fill: #ed4887;      }      .cls-9 {        fill: #f8cc15;      }    </style></defs><text class="cls-2" transform="translate(67.21 245.08)"><tspan class="cls-4" x="0" y="0">DIGI</tspan><tspan class="cls-5" x="173.5" y="0">T</tspan><tspan class="cls-6" x="219.51" y="0">AL PRINTING</tspan></text><g><rect class="cls-7" x="252.17" y="257.04" width="179.6" height="18.42"></rect><rect class="cls-9" x="431.77" y="257.04" width="179.6" height="18.42"></rect><rect class="cls-8" x="611.38" y="257.04" width="179.6" height="18.42"></rect><path class="cls-7" d="m200.37,31.33c.8-.69,102.48,0,102.48,0,0,0-25.82,29.99-24.01,110.88,0,0-16.34-30.9.61-92.25l-91.18-.91s6.86-13.18,12.1-17.72Z"></path><path class="cls-1" d="m182.21,58.6c1.36-1.07,82.71,0,82.71,0,0,0-9.68,69.07,2.82,83.61,0,0-20.58-10.45-16.14-68.62l-73.83.45s.4-12.27,4.44-15.45Z"></path><path class="cls-3" d="m177.77,86.62h63.75s-1.21,57.41,19.77,62.86c0,0-27.44-4.11-30.26-49.32h-40.35s3.23,72.95,78.67,62.95c0,0,78.67-15.45,45.59-114.97,0,0,26.63,44.99-1.21,94.06,0,0-23.8,47.26-85.13,30.45,0,0-55.27-11.67-50.84-86.04Z"></path><path class="cls-3" d="m72.93,173.65L24.16,31.17h44.35l17.59,61.21c5.55,19,8.81,32.17,12.05,48.08h.63c2.75-14.74,6.41-27.96,12.3-47.67l18.19-61.62h42.78l-49.86,142.48h-49.25Z"></path><path class="cls-3" d="m343.54,31.17h41.87v111.54h67.15l-4.52,30.94h-104.5V31.17Z"></path><path class="cls-3" d="m510.77,31.17v142.48h-41.87V31.17h41.87Z"></path><path class="cls-3" d="m540.27,31.17h41.46v57.85c9.32-13,30.36-39.08,44.42-57.85h49.45l-52.35,58.38,54.14,84.1h-48.93l-34.12-57.15-12.61,12.99v44.16h-41.46V31.17Z"></path><path class="cls-3" d="m820.78,102.28c0,40.3-24.28,74.01-73.08,74.01s-71.08-33.5-71.08-73.82,25.4-73.96,73.23-73.96c44.9,0,70.94,31.14,70.94,73.77Zm-101.11-.42c0,26.16,8.69,44.36,29.35,44.36,21.71,0,28.86-19.31,28.86-43.59,0-26-7.59-44.03-29.41-44.03-20.28,0-28.8,16.74-28.8,43.26Z"></path><rect class="cls-3" x="72.57" y="257.04" width="179.6" height="18.42"></rect></g></svg>