<svg width="600" height="300" xmlns="http://www.w3.org/2000/svg">

 <g>
  <title>background</title>
  <rect fill="none" id="canvas_background" height="302" width="602" y="-1" x="-1"/>
 </g>
 <g>
  <title>Layer 1</title>
  <rect id="svg_1" height="580.562" width="581.127" fill="#DADBDC" y="11" x="109.437"/>
  <g stroke="null" id="svg_2">
   <path stroke="null" id="svg_3" d="m-12.563,-152.563l621.127,0l0,621.127l-621.127,0l0,-621.127l0,0zm380.909,259.62l-8.185,-47.831l-167.531,29.415l24.553,139.908l16.627,-2.813l0,12.021l170.087,0l0,-130.7l-35.551,0l0,0zm-134.535,104.609l-5.371,1.021l-19.95,-112.794l140.419,-24.812l5.628,31.974l-120.726,0l0,104.611l0,0l0,0zm156.276,12.277l-142.466,0l0,-103.075l142.466,0l0,103.075l0,0zm-133.259,-93.868l0,76.474l28.903,-19.181l17.903,11.252l43.48,-47.829l5.629,2.301l28.134,32.485l0,-55.502l-124.049,0l0,0l0,0zm27.623,32.993c-6.648,0 -12.276,-5.626 -12.276,-12.277c0,-6.65 5.628,-12.279 12.276,-12.279c6.651,0 12.276,5.626 12.276,12.279c0.002,6.651 -5.625,12.277 -12.276,12.277l0,0l0,0z" fill="#F3F4F4"/>
  </g>
 </g>
</svg>