<?xml version="1.0" standalone="no"?>
<!DOCTYPE svg PUBLIC "-//W3C//DTD SVG 1.1//EN" "http://www.w3.org/Graphics/SVG/1.1/DTD/svg11.dtd" >
<svg xmlns="http://www.w3.org/2000/svg">
<metadata>
<json>
<![CDATA[
{
	"fontFamily": "fontello",
	"description": "Font generated by IcoMoon.",
	"majorVersion": 1,
	"minorVersion": 0,
	"version": "Version 1.0",
	"fontId": "fontello",
	"psName": "fontello",
	"subFamily": "Regular",
	"fullName": "fontello"
}
]]>
</json>
</metadata>
<defs>
<font id="fontello" horiz-adv-x="1024">
<font-face units-per-em="1024" ascent="870.4" descent="-153.6" />
<missing-glyph horiz-adv-x="1024" />
<glyph unicode="&#x20;" horiz-adv-x="0" d="" />
<glyph unicode="&#xe800;" glyph-name="upload-outline" data-tags="upload-outline" horiz-adv-x="961" d="M958.464 61.184l2.048-267.264q0-22.528-16.384-37.888t-37.888-15.36h-851.968q-22.528 0-37.888 15.36t-16.384 37.888v267.264q0 6.144 3.072 16.384l105.472 320.512q8.192 21.504 30.72 31.744-35.84 47.104-31.744 106.496t46.080 102.4l326.656 326.656 326.656-326.656q41.984-41.984 46.080-102.4t-32.768-106.496q22.528-10.24 29.696-31.744l107.52-320.512q1.024-5.12 1.024-16.384zM229.376 562.944q-15.36-15.36-15.36-37.888t15.36-37.888 37.888-15.36 37.888 15.36l120.832 121.856v-308.224q0-21.504 16.384-36.864t37.888-15.36 37.888 15.36 15.36 36.864v308.224l121.856-121.856q15.36-15.36 37.888-15.36t37.888 15.36 15.36 37.888-15.36 37.888l-250.88 250.88zM198.656 327.424l-88.064-266.24h739.328l-88.064 266.24h-121.856v-26.624q0-66.56-47.104-113.664t-112.64-46.080-113.664 46.080-46.080 113.664v26.624h-121.856zM106.496-152.832h747.52v160.768h-747.52v-160.768z" />
<glyph unicode="&#xe801;" glyph-name="up-hand" data-tags="up-hand" horiz-adv-x="878" d="M731.136-49.408q0 15.36-10.24 25.6t-25.6 11.264-26.624-11.264-10.24-25.6 10.24-25.6 26.624-11.264 25.6 11.264 10.24 25.6zM804.864 386.816q0 108.544-95.232 108.544-15.36 0-32.768-3.072-9.216 17.408-29.696 27.648t-41.984 9.216-39.936-10.24q-27.648 30.72-67.584 30.72-14.336 0-31.744-6.144t-26.624-14.336v189.44q0 29.696-22.528 51.2t-51.2 22.528q-28.672 0-51.2-22.528t-21.504-51.2v-328.704q-11.264 0-27.648 8.192t-31.744 19.456-38.912 18.432-48.128 8.192q-37.888 0-56.32-25.6t-17.408-65.536q0-13.312 79.872-51.2 25.6-14.336 36.864-21.504 36.864-22.528 82.944-63.488t60.416-58.368q32.768-38.912 32.768-79.872v-18.432h365.568v18.432q0 40.96 18.432 95.232t36.864 110.592 18.432 102.4zM877.568 389.888q0-75.776-38.912-183.296-33.792-94.208-33.792-128v-164.864q0-29.696-21.504-51.2t-52.224-21.504h-365.568q-29.696 0-51.2 21.504t-21.504 51.2v164.864q0 6.144-3.072 12.288t-8.192 13.312-10.24 13.312-12.288 13.312-12.288 12.288-12.288 10.24-10.24 8.192q-41.984 36.864-73.728 57.344-11.264 7.168-34.816 18.432t-40.96 21.504-36.864 23.552-27.648 30.72-10.24 39.936q0 71.68 37.888 117.76t108.544 47.104q38.912 0 72.704-13.312v214.016q0 59.392 44.032 103.424t102.4 43.008q59.392 0 103.424-43.008t43.008-103.424v-96.256q35.84-2.048 67.584-21.504 12.288 2.048 24.576 2.048 58.368 0 102.4-34.816 78.848 1.024 124.928-48.128t46.080-130.048z" />
<glyph unicode="&#xe802;" glyph-name="basket-alt" data-tags="basket-alt" horiz-adv-x="825" d="M367.616 55.040c0-47.104-38.912-86.016-86.016-86.016s-86.016 38.912-86.016 86.016 38.912 86.016 86.016 86.016 86.016-38.912 86.016-86.016zM782.336 55.040c0-47.104-38.912-86.016-86.016-86.016-46.080 0-83.968 38.912-83.968 86.016s37.888 86.016 83.968 86.016c47.104 0 84.992-38.912 86.016-86.016zM776.192 592.64c27.648-1.024 49.152-23.552 49.152-51.2v-287.744c0-29.696-22.528-53.248-52.224-53.248h-488.448c-24.576 0-46.080 19.456-50.176 44.032l-91.136 324.608s-15.36 59.392-41.984 66.56c-41.984 12.288-101.376-11.264-101.376 56.32 0 44.032 39.936 44.032 39.936 44.032 1.024 0 9.216 1.024 19.456 1.024 61.44 0 134.144-22.528 161.792-104.448zM733.184 420.608v83.968l-115.712 8.192v-92.16h115.712zM448.512 420.608h128v95.232l-128 9.216v-104.448zM576.512 391.936h-128v-99.328h128v99.328zM407.552 527.104l-163.84 10.24 37.888-116.736h125.952v106.496zM291.84 391.936l30.72-99.328h84.992v99.328h-115.712zM617.472 292.608h115.712v99.328h-115.712v-99.328z" />
<glyph unicode="&#xe803;" glyph-name="left-open" data-tags="left-open" horiz-adv-x="731" d="M668.672 692.992l-303.104-303.104 303.104-304.128q11.264-10.24 11.264-25.6t-11.264-25.6l-94.208-95.232q-11.264-10.24-25.6-10.24t-25.6 10.24l-423.936 424.96q-11.264 10.24-11.264 25.6t11.264 25.6l423.936 423.936q10.24 10.24 25.6 10.24t25.6-10.24l94.208-95.232q11.264-10.24 11.264-25.6t-11.264-25.6z" />
<glyph unicode="&#xe804;" glyph-name="right-open" data-tags="right-open" horiz-adv-x="731" d="M632.832 364.288l-423.936-424.96q-11.264-10.24-25.6-10.24t-26.624 10.24l-94.208 95.232q-11.264 11.264-11.264 25.6t11.264 25.6l303.104 304.128-303.104 303.104q-11.264 11.264-11.264 25.6t11.264 25.6l94.208 95.232q11.264 10.24 26.624 10.24t25.6-10.24l423.936-423.936q10.24-11.264 10.24-25.6t-10.24-25.6z" />
<glyph unicode="&#xe805;" glyph-name="heart-empty" data-tags="heart-empty" d="M951.296 524.032q0 47.104-12.288 81.92t-31.744 56.32-47.104 33.792-53.248 18.432-56.32 4.096-63.488-14.336-63.488-36.864-49.152-40.96-34.816-34.816q-10.24-13.312-27.648-13.312t-27.648 13.312q-14.336 15.36-34.816 34.816t-49.152 40.96-63.488 36.864-63.488 14.336-56.32-4.096-53.248-18.432-47.104-33.792-31.744-56.32-12.288-81.92q0-95.232 107.52-202.752l331.776-319.488 331.776 319.488q107.52 107.52 107.52 202.752zM1024 524.032q0-125.952-131.072-257.024l-355.328-343.040q-10.24-10.24-25.6-10.24t-25.6 10.24l-356.352 344.064q-5.12 5.12-15.36 15.36t-31.744 36.864-38.912 56.32-30.72 68.608-13.312 78.848q0 125.952 72.704 196.608t200.704 71.68q34.816 0 71.68-12.288t68.608-33.792 55.296-38.912 43.008-38.912q20.48 20.48 43.008 38.912t55.296 38.912 68.608 33.792 71.68 12.288q128 0 200.704-71.68t72.704-196.608z" />
<glyph unicode="&#xe806;" glyph-name="arrows-ccw" data-tags="arrows-ccw" horiz-adv-x="840" d="M190.464 137.984l118.784 118.784v-299.008l-282.624 16.384 90.112 88.064q-118.784 124.928-116.736 296.96t122.88 294.912q102.4 102.4 245.76 118.784l4.096-104.448q-102.4-16.384-176.128-90.112-90.112-90.112-92.16-218.112t86.016-222.208zM530.432 750.336l282.624-16.384-90.112-88.064q118.784-124.928 116.736-296.96t-122.88-294.912q-98.304-100.352-245.76-120.832l-2.048 106.496q100.352 16.384 174.080 90.112 90.112 90.112 92.16 218.112t-86.016 222.208l-116.736-118.784z" />
<glyph unicode="&#xe807;" glyph-name="eye" data-tags="eye" d="M951.296 316.16q-87.040 135.168-218.112 201.728 34.816-59.392 34.816-128 0-106.496-74.752-181.248t-181.248-74.752-181.248 74.752-74.752 181.248q0 68.608 34.816 128-131.072-66.56-218.112-201.728 76.8-116.736 191.488-186.368t247.808-69.632 247.808 69.632 191.488 186.368zM539.648 536.32q0 11.264-8.192 19.456t-19.456 7.168q-71.68 0-122.88-51.2t-51.2-121.856q0-11.264 8.192-19.456t19.456-8.192 19.456 8.192 8.192 19.456q0 49.152 34.816 83.968t83.968 34.816q11.264 0 19.456 8.192t8.192 19.456zM1024 316.16q0-19.456-11.264-38.912-79.872-132.096-215.040-210.944t-285.696-78.848-285.696 78.848-215.040 210.944q-11.264 19.456-11.264 38.912t11.264 39.936q79.872 131.072 215.040 209.92t285.696 79.872 285.696-79.872 215.040-209.92q11.264-20.48 11.264-39.936z" />
<glyph unicode="&#xe808;" glyph-name="basket" data-tags="basket" horiz-adv-x="922" d="M153.6-5.376q0 40.96 30.72 71.68t71.68 30.72q43.008 0 72.704-30.72t29.696-71.68q0-43.008-29.696-72.704t-72.704-29.696q-40.96 0-71.68 29.696t-30.72 72.704zM665.6-5.376q0 40.96 30.72 71.68t71.68 30.72q43.008 0 72.704-30.72t29.696-71.68q0-43.008-29.696-72.704t-72.704-29.696q-40.96 0-71.68 29.696t-30.72 72.704zM335.872 236.288q-36.864-10.24-34.816-23.552t45.056-13.312h575.488v-77.824q0-20.48-20.48-20.48h-669.696q-20.48 0-20.48 20.48v77.824l-10.24 47.104-100.352 464.896h-100.352v81.92q0 20.48 20.48 20.48h159.744q20.48 0 20.48-20.48v-88.064h720.896v-280.576q0-22.528-18.432-26.624z" />
<glyph unicode="&#xe809;" glyph-name="heart" data-tags="heart" d="M512-86.272q-14.336 0-25.6 10.24l-356.352 344.064q-5.12 5.12-15.36 15.36t-31.744 36.864-38.912 56.32-30.72 68.608-13.312 78.848q0 125.952 72.704 196.608t200.704 71.68q34.816 0 71.68-12.288t68.608-33.792 55.296-38.912 43.008-38.912q20.48 20.48 43.008 38.912t55.296 38.912 68.608 33.792 71.68 12.288q128 0 200.704-71.68t72.704-196.608q0-125.952-131.072-257.024l-355.328-343.040q-10.24-10.24-25.6-10.24z" />
<glyph unicode="&#xe80a;" glyph-name="facebook" data-tags="facebook" horiz-adv-x="585" d="M547.84 857.856v-150.528h-89.088q-49.152 0-66.56-20.48t-17.408-61.44v-108.544h167.936l-22.528-168.96h-145.408v-434.176h-175.104v434.176h-145.408v168.96h145.408v124.928q0 106.496 59.392 164.864t158.72 58.368q83.968 0 130.048-7.168z" />
<glyph unicode="&#xe80b;" glyph-name="twitter" data-tags="twitter" horiz-adv-x="950" d="M925.696 631.552q-37.888-55.296-92.16-95.232 0-8.192 0-23.552 0-74.752-21.504-148.48t-65.536-142.336-105.472-119.808-147.456-83.968-185.344-30.72q-154.624 0-282.624 82.944 19.456-2.048 44.032-2.048 129.024 0 229.376 78.848-60.416 1.024-107.52 36.864t-65.536 91.136q19.456-3.072 34.816-3.072 24.576 0 49.152 6.144-64.512 13.312-106.496 63.488t-41.984 117.76v2.048q38.912-21.504 83.968-23.552-37.888 25.6-60.416 65.536t-22.528 88.064q0 50.176 25.6 93.184 69.632-84.992 167.936-136.192t212.992-56.32q-5.12 21.504-5.12 41.984 0 76.8 54.272 130.048t130.048 54.272q80.896 0 135.168-58.368 62.464 12.288 116.736 45.056-20.48-65.536-80.896-102.4 53.248 6.144 106.496 28.672z" />
<glyph unicode="&#xe80c;" glyph-name="gplus" data-tags="gplus" horiz-adv-x="950" d="M419.84 410.368q0-20.48 18.432-40.96t44.032-37.888 52.224-41.984 44.032-60.416 18.432-80.896q0-51.2-27.648-98.304-40.96-69.632-120.832-103.424t-169.984-32.768q-75.776 0-141.312 24.576t-97.28 77.824q-21.504 34.816-21.504 74.752 0 47.104 25.6 86.016t67.584 65.536q74.752 47.104 230.4 57.344-18.432 24.576-26.624 41.984t-9.216 41.984q0 20.48 12.288 49.152-26.624-3.072-38.912-3.072-84.992 0-142.336 55.296t-58.368 140.288q0 46.080 20.48 90.112t56.32 74.752q44.032 37.888 104.448 56.32t124.928 18.432h238.592l-78.848-50.176h-74.752q41.984-35.84 63.488-75.776t21.504-92.16q0-40.96-13.312-73.728t-33.792-53.248-39.936-36.864-33.792-34.816-14.336-37.888zM336.896 464.64q21.504 0 44.032 10.24t37.888 24.576q30.72 32.768 30.72 91.136 0 32.768-10.24 70.656t-27.648 74.752-48.128 58.368-66.56 23.552q-24.576 0-47.104-11.264t-37.888-29.696q-26.624-33.792-26.624-91.136 0-26.624 5.12-56.32t18.432-58.368 29.696-53.248 43.008-37.888 55.296-15.36zM337.92-34.048q32.768 0 63.488 7.168t56.32 22.528 41.984 41.984 15.36 62.464q0 14.336-4.096 27.648t-8.192 24.576-15.36 23.552-16.384 19.456-22.528 20.48-20.48 16.384-23.552 16.384-21.504 15.36q-8.192 1.024-26.624 1.024-30.72 0-60.416-4.096t-61.44-14.336-55.296-25.6-38.912-43.008-15.36-60.416q0-39.936 19.456-70.656t52.224-47.104 68.608-25.6 72.704-8.192zM800.768 466.688h121.856v-61.44h-121.856v-124.928h-60.416v124.928h-120.832v61.44h120.832v123.904h60.416v-123.904z" />
<glyph unicode="&#xe80d;" glyph-name="home" data-tags="home" horiz-adv-x="950" d="M804.864 297.728v-273.408q0-15.36-11.264-26.624t-25.6-10.24h-219.136v219.136h-146.432v-219.136h-219.136q-15.36 0-25.6 10.24t-11.264 26.624v273.408q0 1.024 0 2.048t0 2.048l328.704 270.336 328.704-270.336q1.024-1.024 1.024-4.096zM931.84 337.664l-34.816-41.984q-5.12-5.12-12.288-6.144h-2.048q-7.168 0-12.288 3.072l-395.264 329.728-395.264-329.728q-7.168-4.096-13.312-3.072-7.168 1.024-12.288 6.144l-35.84 41.984q-4.096 6.144-3.072 13.312t6.144 12.288l410.624 342.016q18.432 15.36 43.008 15.36t44.032-15.36l139.264-116.736v111.616q0 8.192 5.12 13.312t13.312 5.12h109.568q8.192 0 13.312-5.12t5.12-13.312v-232.448l124.928-104.448q5.12-4.096 6.144-12.288t-4.096-13.312z" />
<glyph unicode="&#xe80e;" glyph-name="phone" data-tags="phone" horiz-adv-x="804" d="M804.864 156.416q0-15.36-6.144-39.936t-12.288-38.912q-11.264-28.672-69.632-61.44-53.248-28.672-105.472-28.672-16.384 0-30.72 2.048t-32.768 7.168-26.624 8.192-31.744 11.264-28.672 10.24q-55.296 20.48-99.328 48.128-73.728 45.056-151.552 122.88t-122.88 151.552q-27.648 44.032-47.104 99.328-2.048 5.12-10.24 28.672t-12.288 31.744-8.192 26.624-7.168 32.768-2.048 29.696q0 53.248 29.696 106.496 31.744 58.368 60.416 69.632 14.336 6.144 38.912 12.288t39.936 6.144q8.192 0 12.288-2.048 10.24-3.072 30.72-44.032 6.144-10.24 16.384-30.72t20.48-35.84 17.408-30.72q2.048-2.048 10.24-14.336t12.288-20.48 4.096-16.384q0-11.264-16.384-28.672t-35.84-30.72-34.816-30.72-16.384-25.6q0-5.12 3.072-13.312t4.096-11.264 8.192-14.336 7.168-10.24q43.008-78.848 99.328-135.168t134.144-99.328q1.024 0 10.24-6.144t14.336-8.192 11.264-5.12 13.312-2.048q10.24 0 25.6 15.36t30.72 35.84 31.744 35.84 28.672 16.384q7.168 0 15.36-4.096t20.48-12.288 14.336-10.24q14.336-8.192 30.72-17.408t35.84-20.48 31.744-17.408q39.936-19.456 43.008-29.696 2.048-4.096 2.048-12.288z" />
<glyph unicode="&#xe80f;" glyph-name="fax" data-tags="fax" d="M164.864 645.888q37.888 0 64.512-27.648t26.624-64.512v-621.568q0-37.888-26.624-64.512t-64.512-26.624h-73.728q-36.864 0-64.512 26.624t-26.624 64.512v621.568q0 37.888 26.624 64.512t64.512 27.648h73.728zM951.296 552.704q32.768-19.456 52.224-53.248t20.48-73.728v-438.272q0-60.416-43.008-103.424t-103.424-43.008h-493.568q-37.888 0-64.512 26.624t-26.624 64.512v877.568q0 23.552 15.36 38.912t38.912 16.384h384q23.552 0 50.176-11.264t44.032-27.648l87.040-87.040q15.36-15.36 26.624-43.008t12.288-50.176v-93.184zM530.432-12.544v72.704q0 8.192-5.12 13.312t-13.312 5.12h-72.704q-8.192 0-13.312-5.12t-5.12-13.312v-72.704q0-8.192 5.12-13.312t13.312-5.12h72.704q8.192 0 13.312 5.12t5.12 13.312zM530.432 133.888v72.704q0 8.192-5.12 13.312t-13.312 5.12h-72.704q-8.192 0-13.312-5.12t-5.12-13.312v-72.704q0-8.192 5.12-13.312t13.312-5.12h72.704q8.192 0 13.312 5.12t5.12 13.312zM530.432 280.32v72.704q0 8.192-5.12 13.312t-13.312 5.12h-72.704q-8.192 0-13.312-5.12t-5.12-13.312v-72.704q0-8.192 5.12-13.312t13.312-5.12h72.704q8.192 0 13.312 5.12t5.12 13.312zM676.864-12.544v72.704q0 8.192-5.12 13.312t-13.312 5.12h-73.728q-7.168 0-12.288-5.12t-5.12-13.312v-72.704q0-8.192 5.12-13.312t12.288-5.12h73.728q8.192 0 13.312 5.12t5.12 13.312zM676.864 133.888v72.704q0 8.192-5.12 13.312t-13.312 5.12h-73.728q-7.168 0-12.288-5.12t-5.12-13.312v-72.704q0-8.192 5.12-13.312t12.288-5.12h73.728q8.192 0 13.312 5.12t5.12 13.312zM676.864 280.32v72.704q0 8.192-5.12 13.312t-13.312 5.12h-73.728q-7.168 0-12.288-5.12t-5.12-13.312v-72.704q0-8.192 5.12-13.312t12.288-5.12h73.728q8.192 0 13.312 5.12t5.12 13.312zM823.296-12.544v72.704q0 8.192-5.12 13.312t-13.312 5.12h-73.728q-8.192 0-13.312-5.12t-5.12-13.312v-72.704q0-8.192 5.12-13.312t13.312-5.12h73.728q8.192 0 13.312 5.12t5.12 13.312zM823.296 133.888v72.704q0 8.192-5.12 13.312t-13.312 5.12h-73.728q-8.192 0-13.312-5.12t-5.12-13.312v-72.704q0-8.192 5.12-13.312t13.312-5.12h73.728q8.192 0 13.312 5.12t5.12 13.312zM823.296 280.32v72.704q0 8.192-5.12 13.312t-13.312 5.12h-73.728q-8.192 0-13.312-5.12t-5.12-13.312v-72.704q0-8.192 5.12-13.312t13.312-5.12h73.728q8.192 0 13.312 5.12t5.12 13.312zM877.568 499.456v146.432h-91.136q-22.528 0-38.912 15.36t-16.384 38.912v92.16h-365.568v-292.864h512z" />
<glyph unicode="&#xe810;" glyph-name="globe" data-tags="globe" horiz-adv-x="878" d="M439.296 792.32q118.784 0 220.16-59.392t159.744-159.744 58.368-220.16-58.368-220.16-159.744-159.744-220.16-59.392-221.184 59.392-158.72 159.744-59.392 220.16 59.392 220.16 158.72 159.744 221.184 59.392zM594.944 494.336q-1.024-1.024-5.12-5.12t-7.168-6.144q1.024 0 2.048 3.072t3.072 6.144 2.048 4.096q3.072 4.096 12.288 8.192 8.192 4.096 29.696 7.168 19.456 5.12 29.696-6.144-1.024 1.024 5.12 7.168t8.192 7.168 8.192 2.048 9.216 5.12l1.024 12.288q-7.168-1.024-10.24 4.096t-3.072 12.288q0-2.048-4.096-5.12 0 4.096-2.048 5.12t-7.168-1.024-5.12-1.024q-5.12 2.048-8.192 5.12t-5.12 9.216-2.048 8.192q-1.024 3.072-5.12 6.144t-5.12 6.144q-1.024 1.024-2.048 3.072t-2.048 4.096-2.048 3.072-3.072 1.024-4.096-3.072-4.096-5.12-2.048-3.072q-2.048 1.024-4.096 1.024t-2.048-1.024-3.072-1.024-3.072-2.048q-1.024-2.048-4.096-2.048t-5.12-1.024q8.192 3.072-1.024 6.144-5.12 2.048-9.216 2.048 5.12 2.048 5.12 6.144t-5.12 8.192h3.072q-1.024 2.048-5.12 5.12t-10.24 5.12-7.168 3.072q-5.12 3.072-19.456 5.12t-18.432 1.024q-3.072-4.096-3.072-6.144t2.048-8.192 2.048-7.168q1.024-3.072-3.072-7.168t-3.072-7.168q0-4.096 7.168-9.216t6.144-12.288q-2.048-4.096-9.216-9.216t-9.216-6.144q-3.072-5.12-1.024-11.264t6.144-9.216q1.024-1.024 1.024-2.048t-2.048-3.072-3.072-2.048-4.096-2.048l-1.024-1.024q-7.168-3.072-12.288 3.072t-7.168 15.36q-4.096 14.336-9.216 17.408-13.312 4.096-17.408-1.024-2.048 7.168-22.528 15.36-14.336 5.12-33.792 2.048 4.096 0 0 8.192-4.096 9.216-10.24 7.168 1.024 3.072 2.048 10.24t0 7.168q2.048 7.168 7.168 13.312 1.024 1.024 4.096 5.12t5.12 7.168 1.024 4.096q19.456-3.072 28.672 6.144 2.048 3.072 6.144 9.216t6.144 10.24q5.12 3.072 8.192 3.072t8.192-3.072 8.192-3.072q8.192-1.024 8.192 6.144t-4.096 11.264q7.168 0 2.048 10.24-3.072 4.096-5.12 5.12-6.144 2.048-15.36-3.072-4.096-2.048 2.048-4.096-1.024 0-6.144-6.144t-9.216-10.24-9.216 3.072q0 0-3.072 7.168t-5.12 8.192q-5.12 0-9.216-9.216 1.024 5.12-6.144 9.216t-14.336 4.096q11.264 7.168-4.096 15.36-4.096 3.072-12.288 3.072t-11.264-2.048q-2.048-4.096-3.072-7.168t3.072-4.096 6.144-3.072 6.144-2.048 5.12-2.048q8.192-6.144 5.12-8.192-1.024 0-5.12-2.048t-6.144-2.048-4.096-3.072q-2.048-2.048 0-7.168t-1.024-8.192q-3.072 3.072-5.12 10.24t-4.096 9.216q4.096-5.12-14.336-4.096l-5.12 1.024q-3.072 0-9.216-1.024t-12.288-1.024-7.168 5.12q-3.072 4.096 0 11.264 0 2.048 2.048 1.024-2.048 2.048-6.144 5.12t-6.144 5.12q-25.6-8.192-53.248-23.552 3.072 0 6.144 1.024t8.192 3.072 5.12 4.096q19.456 7.168 24.576 3.072l3.072 3.072q7.168-9.216 11.264-14.336-4.096 3.072-17.408 1.024-11.264-4.096-12.288-7.168 4.096-7.168 2.048-10.24-2.048 2.048-6.144 6.144t-8.192 6.144-8.192 3.072q-9.216 0-13.312-1.024-82.944-46.080-134.144-126.976 4.096-4.096 7.168-4.096 2.048-1.024 3.072-5.12t1.024-6.144 6.144 1.024q5.12-4.096 2.048-10.24 1.024 0 25.6-15.36 10.24-10.24 11.264-12.288 2.048-6.144-5.12-10.24-1.024 1.024-5.12 5.12t-5.12 2.048q-2.048-3.072 0-10.24t6.144-7.168q-4.096 0-5.12-9.216t-2.048-20.48 0-13.312l1.024-1.024q-2.048-6.144 3.072-19.456t12.288-11.264q-7.168-1.024 11.264-24.576 3.072-4.096 4.096-5.12 2.048-1.024 7.168-4.096t9.216-6.144 5.12-5.12q2.048-3.072 6.144-13.312t8.192-13.312q-2.048-3.072 5.12-11.264t6.144-13.312q-1.024 0-2.048-1.024t-1.024 0q2.048-4.096 9.216-8.192t8.192-7.168q1.024-2.048 1.024-6.144t2.048-6.144 4.096-1.024q2.048 11.264-13.312 34.816-8.192 14.336-9.216 17.408-2.048 2.048-4.096 8.192t-2.048 8.192q1.024 0 3.072 0t5.12-2.048 4.096-3.072 1.024-1.024q-1.024-4.096 1.024-10.24t7.168-10.24 10.24-11.264 6.144-7.168q4.096-4.096 8.192-11.264t0-8.192q5.12 0 11.264-5.12t10.24-11.264q3.072-5.12 4.096-15.36t3.072-13.312q1.024-4.096 5.12-8.192t7.168-5.12l9.216-5.12t7.168-3.072q3.072-2.048 10.24-6.144t12.288-7.168q6.144-2.048 9.216-2.048t8.192 1.024 8.192 2.048q8.192 1.024 16.384-8.192t12.288-12.288q20.48-10.24 30.72-6.144-1.024 0 1.024-4.096t4.096-9.216 5.12-8.192 3.072-5.12q3.072-3.072 10.24-8.192t10.24-8.192q4.096 2.048 4.096 5.12-1.024-5.12 4.096-11.264t10.24-6.144q8.192 2.048 8.192 18.432-17.408-9.216-27.648 10.24 0 0-2.048 3.072t-2.048 5.12-1.024 4.096 0 5.12 2.048 1.024q5.12 0 6.144 2.048t-1.024 7.168-2.048 8.192q-1.024 4.096-6.144 11.264t-7.168 8.192q-3.072-5.12-9.216-4.096t-9.216 5.12q0-1.024-1.024-3.072t-1.024-4.096q-7.168 0-8.192 0 1.024 2.048 1.024 10.24t2.048 13.312q1.024 2.048 3.072 6.144t5.12 9.216 2.048 7.168-3.072 5.12-9.216 1.024q-11.264 0-15.36-11.264-1.024-2.048-2.048-6.144t-2.048-6.144-5.12-4.096-14.336-1.024-13.312 3.072q-8.192 4.096-13.312 16.384t-5.12 20.48q0 6.144 1.024 15.36t2.048 14.336-3.072 14.336q2.048 1.024 5.12 5.12t5.12 6.144q2.048 1.024 3.072 1.024t2.048 0 3.072 1.024 1.024 3.072q0 1.024-2.048 2.048t-2.048 1.024q4.096-1.024 16.384 1.024t15.36-1.024q9.216-6.144 12.288 1.024 0 1.024-1.024 6.144t0 7.168q3.072-15.36 16.384-5.12 2.048-1.024 9.216-3.072t9.216-2.048q2.048-1.024 4.096-3.072t3.072-3.072 3.072 0 5.12 4.096q5.12-8.192 7.168-13.312 6.144-23.552 10.24-25.6t6.144-1.024 3.072 5.12 0 8.192-1.024 7.168l-1.024 4.096v15.36q-8.192 2.048-10.24 7.168t0 10.24 9.216 10.24q0 1.024 4.096 2.048t9.216 4.096 7.168 4.096q12.288 11.264 8.192 20.48 4.096 0 6.144 5.12 0 0-2.048 2.048t-5.12 2.048-2.048 2.048q5.12 2.048 1.024 8.192 3.072 2.048 4.096 7.168t4.096 5.12q5.12-7.168 12.288-1.024 4.096 5.12 1.024 9.216 2.048 4.096 11.264 6.144t10.24 5.12q4.096-1.024 5.12 1.024t0 7.168 2.048 7.168q2.048 2.048 8.192 5.12t8.192 2.048l9.216 7.168q2.048 2.048 0 2.048 10.24-1.024 18.432 6.144 5.12 6.144-4.096 11.264 2.048 3.072-2.048 5.12t-8.192 3.072q2.048 1.024 7.168 1.024t5.12 1.024q9.216 5.12-4.096 9.216-9.216 2.048-24.576-7.168zM502.784-7.424q116.736 21.504 199.68 108.544-1.024 2.048-7.168 2.048t-7.168 2.048q-10.24 4.096-13.312 5.12 1.024 4.096-1.024 7.168t-5.12 5.12-7.168 5.12-6.144 4.096q-1.024 1.024-4.096 3.072t-4.096 3.072-4.096 2.048-5.12 2.048-5.12-1.024l-2.048-1.024q-2.048 0-3.072-1.024t-3.072-2.048-2.048-1.024 0-2.048q-12.288 10.24-20.48 13.312-3.072 0-7.168 3.072t-5.12 4.096-6.144 0-6.144-4.096q-3.072-2.048-4.096-8.192t-1.024-7.168q-4.096 3.072 0 10.24t1.024 10.24q-1.024 3.072-6.144 2.048t-6.144-2.048-7.168-5.12-5.12-3.072-4.096-3.072-5.12-5.12q-2.048-2.048-4.096-6.144t-2.048-7.168q-1.024 3.072-7.168 4.096t-5.12 3.072q1.024-5.12 2.048-19.456t3.072-22.528q4.096-17.408-7.168-26.624-15.36-14.336-16.384-23.552-2.048-12.288 7.168-14.336 0-4.096-5.12-12.288t-4.096-12.288q0-3.072 2.048-9.216z" />
<glyph unicode="&#xe811;" glyph-name="search" data-tags="search" d="M763.904 208.64l260.096-261.12-107.52-107.52-260.096 260.096q-108.544-73.728-237.568-73.728-173.056 0-295.936 122.88t-122.88 295.936 122.88 295.936 295.936 122.88 295.936-122.88 122.88-295.936q0-130.048-73.728-236.544zM697.344 445.184q0 115.712-80.896 197.632t-197.632 81.92-197.632-81.92-81.92-197.632 81.92-196.608 197.632-81.92 197.632 81.92 80.896 196.608z" />
<glyph unicode="&#xe812;" glyph-name="search-outline" data-tags="search-outline" horiz-adv-x="896" d="M523.264 588.544q-66.56 0-112.64-47.104t-47.104-112.64 47.104-113.664 112.64-46.080 113.664 46.080 47.104 113.664-47.104 112.64-113.664 47.104zM523.264 640.768q89.088 0 150.528-61.44t62.464-150.528-62.464-151.552-150.528-62.464-150.528 62.464-62.464 151.552 62.464 150.528 150.528 61.44zM0 72.448q0 69.632 49.152 117.76l119.808 121.856q-19.456 55.296-19.456 116.736 0 154.624 109.568 263.168t264.192 109.568 264.192-109.568 108.544-263.168-108.544-264.192-264.192-109.568q-54.272 0-115.712 19.456l-128-126.976q-50.176-43.008-112.64-43.008-69.632 0-117.76 50.176t-49.152 117.76zM344.064 162.56q-52.224 34.816-87.040 87.040l-133.12-134.144q-17.408-15.36-17.408-43.008 0-25.6 17.408-43.008t43.008-18.432q22.528 0 43.008 18.432zM523.264 161.536q110.592 0 188.416 77.824t77.824 189.44-77.824 188.416-188.416 77.824-188.416-77.824-78.848-188.416 78.848-189.44 188.416-77.824z" />
<glyph unicode="&#xe813;" glyph-name="search-1" data-tags="search-1" horiz-adv-x="808" d="M790.528 74.496q30.72-34.816 6.144-63.488l-47.104-47.104q-36.864-32.768-69.632 0l-194.56 194.56q-75.776-43.008-159.744-43.008-131.072 0-228.352 97.28t-97.28 228.352 92.16 224.256 223.232 93.184 229.376-97.28 98.304-228.352q0-90.112-47.104-165.888zM96.256 441.088q0-90.112 69.632-159.744t159.744-69.632 154.624 64.512 64.512 156.672q0 90.112-69.632 158.72t-159.744 68.608-154.624-64.512-64.512-154.624z" />
<glyph unicode="&#xe814;" glyph-name="linkedin" data-tags="linkedin" horiz-adv-x="922" d="M208.896 709.376q0-40.96-29.696-69.632t-76.8-28.672q-45.056 0-73.728 28.672t-28.672 69.632q0 43.008 28.672 70.656t75.776 27.648 74.752-27.648 29.696-70.656zM6.144-99.584v632.832h196.608v-632.832h-196.608zM319.488 330.496q0 88.064-4.096 202.752h169.984l10.24-88.064h4.096q61.44 102.4 194.56 102.4 102.4 0 164.864-68.608t62.464-203.776v-374.784h-196.608v350.208q0 137.216-100.352 137.216-71.68 0-100.352-73.728-6.144-12.288-6.144-49.152v-364.544h-198.656v430.080z" />
<glyph unicode="&#xe815;" glyph-name="pinterest" data-tags="pinterest" horiz-adv-x="793" d="M0 497.408q0 64.512 27.648 128t77.824 117.76 133.12 88.064 182.272 33.792q162.816 0 267.264-100.352t104.448-236.544q0-175.104-88.064-288.768t-229.376-114.688q-46.080 0-86.016 21.504t-57.344 52.224l-40.96-161.792q-5.12-19.456-13.312-38.912t-17.408-38.912-19.456-34.816-19.456-30.72-17.408-24.576-13.312-16.384l-6.144-8.192q-3.072-4.096-8.192-3.072t-6.144 6.144q0 1.024-1.024 14.336t-3.072 27.648-3.072 38.912-1.024 45.056 3.072 49.152 7.168 49.152q11.264 48.128 75.776 320.512-8.192 16.384-13.312 39.936t-5.12 36.864l-1.024 15.36q0 65.536 33.792 109.568t79.872 43.008q37.888 0 59.392-24.576t20.48-63.488q0-23.552-8.192-57.344t-23.552-78.848-20.48-72.704q-10.24-46.080 18.432-79.872t74.752-33.792q80.896 0 134.144 92.16t52.224 221.184q0 99.328-64.512 162.816t-180.224 62.464q-129.024 0-208.896-82.944t-80.896-198.656q0-68.608 38.912-115.712 13.312-15.36 8.192-32.768-2.048-5.12-6.144-23.552t-6.144-23.552q-2.048-11.264-10.24-14.336t-18.432 0q-60.416 24.576-90.112 84.992t-30.72 139.264z" />
<glyph unicode="&#xe816;" glyph-name="circle-thin" data-tags="circle-thin" horiz-adv-x="878" d="M439.296 718.592q-74.752 0-142.336-28.672t-116.736-77.824-77.824-116.736-29.696-142.336 29.696-142.336 77.824-115.712 116.736-78.848 142.336-28.672 141.312 28.672 116.736 78.848 77.824 115.712 29.696 142.336-29.696 142.336-77.824 116.736-116.736 77.824-141.312 28.672zM877.568 353.024q0-119.808-58.368-220.16t-159.744-159.744-220.16-59.392-221.184 59.392-158.72 159.744-59.392 220.16 59.392 220.16 158.72 159.744 221.184 59.392 220.16-59.392 159.744-159.744 58.368-220.16z" />
<glyph unicode="&#xe817;" glyph-name="ok" data-tags="ok" d="M954.368 541.44q0-22.528-15.36-38.912l-491.52-491.52q-16.384-15.36-38.912-15.36t-38.912 15.36l-284.672 284.672q-15.36 16.384-15.36 38.912t15.36 38.912l77.824 77.824q16.384 16.384 38.912 16.384t38.912-16.384l167.936-168.96 374.784 375.808q16.384 16.384 38.912 16.384t38.912-16.384l77.824-77.824q15.36-16.384 15.36-38.912z" />
<glyph unicode="&#xe818;" glyph-name="ok-circled" data-tags="ok-circled" horiz-adv-x="878" d="M734.208 445.184q0 16.384-11.264 26.624l-51.2 51.2q-11.264 11.264-25.6 11.264t-26.624-11.264l-232.448-232.448-129.024 129.024q-11.264 11.264-25.6 11.264t-26.624-11.264l-51.2-51.2q-10.24-10.24-10.24-26.624 0-15.36 10.24-25.6l206.848-206.848q10.24-10.24 25.6-10.24t25.6 10.24l310.272 310.272q11.264 10.24 11.264 25.6zM877.568 353.024q0-119.808-58.368-220.16t-159.744-159.744-220.16-59.392-221.184 59.392-158.72 159.744-59.392 220.16 59.392 220.16 158.72 159.744 221.184 59.392 220.16-59.392 159.744-159.744 58.368-220.16z" />
<glyph unicode="&#xe819;" glyph-name="error-alt" data-tags="error-alt" d="M0 353.024q0 211.968 150.528 362.496t361.472 149.504 362.496-149.504 149.504-362.496-149.504-362.496-362.496-149.504-361.472 149.504-150.528 362.496zM167.936 216.832h688.128v272.384h-688.128v-272.384z" />
<glyph unicode="&#xe81a;" glyph-name="attention" data-tags="attention" d="M584.704 79.616v108.544q0 8.192-5.12 13.312t-12.288 5.12h-110.592q-7.168 0-12.288-5.12t-5.12-13.312v-108.544q0-8.192 5.12-13.312t12.288-6.144h110.592q7.168 0 12.288 6.144t5.12 13.312zM583.68 292.608l10.24 263.168q0 6.144-5.12 10.24-7.168 6.144-14.336 6.144h-124.928q-7.168 0-14.336-6.144-5.12-4.096-5.12-12.288l9.216-261.12q0-5.12 6.144-9.216t13.312-3.072h105.472q8.192 0 13.312 3.072t6.144 9.216zM576.512 827.136l438.272-804.864q20.48-35.84-1.024-71.68-10.24-17.408-26.624-26.624t-35.84-10.24h-878.592q-18.432 0-35.84 10.24t-26.624 26.624q-21.504 35.84-1.024 71.68l439.296 804.864q9.216 17.408 26.624 27.648t36.864 10.24 36.864-10.24 27.648-27.648z" />
<glyph unicode="&#xe81b;" glyph-name="t-shirt" data-tags="t-shirt" d="M4.096 588.544q-14.336 41.984 20.48 70.656l159.744 128q17.408 13.312 39.936 13.312h575.488q22.528 0 39.936-13.312l160.768-128q33.792-28.672 19.456-70.656l-63.488-191.488q-10.24-29.696-39.936-39.936-10.24-4.096-20.48-4.096-18.432 0-31.744 8.192v-392.192q0-25.6-19.456-45.056t-45.056-19.456h-575.488q-26.624 0-45.056 19.456t-19.456 45.056v392.192q-13.312-8.192-31.744-8.192-10.24 0-19.456 4.096-30.72 10.24-39.936 39.936zM64.512 609.024l63.488-191.488 96.256 63.488v-512h575.488v512l96.256-63.488 64.512 191.488-160.768 128h-134.144q-13.312-41.984-55.296-68.608t-98.304-27.648-98.304 27.648-55.296 68.608h-134.144zM392.192 737.024q14.336-27.648 46.080-46.080t73.728-18.432 73.728 18.432 46.080 46.080h-239.616z" />
<glyph unicode="&#xe900;" glyph-name="instagram" data-tags="instagram" d="M746.811 864h-469.624c-152.843 0-277.187-124.344-277.187-277.187v-469.632c0-152.836 124.344-277.179 277.187-277.179h469.632c152.836 0 277.179 124.344 277.179 277.179v469.632c0 152.843-124.344 277.187-277.187 277.187zM963.967 117.181c0-119.734-97.414-217.148-217.156-217.148h-469.624c-119.742 0-217.156 97.414-217.156 217.148v469.632c0 119.742 97.414 217.156 217.156 217.156h469.632c119.734 0 217.148-97.414 217.148-217.156zM511.999 631.993c-154.39 0-279.992-125.601-279.992-279.992s125.601-279.992 279.992-279.992 279.992 125.601 279.992 279.992-125.601 279.992-279.992 279.992zM511.999 132.040c-121.281 0-219.961 98.672-219.961 219.961 0 121.281 98.68 219.961 219.961 219.961 121.289 0 219.961-98.68 219.961-219.961 0-121.289-98.672-219.961-219.961-219.961zM798.686 731.43c-45.625 0-82.734-37.117-82.734-82.734 0-45.625 37.109-82.742 82.734-82.742s82.742 37.117 82.742 82.742-37.117 82.734-82.742 82.734zM798.686 625.993c-12.516 0-22.703 10.187-22.703 22.703 0 12.523 10.187 22.703 22.703 22.703 12.523 0 22.711-10.18 22.711-22.703 0-12.516-10.187-22.703-22.711-22.703z" />
<glyph unicode="&#xe901;" glyph-name="social-normal" data-tags="social-normal" d="M0 864v-1024h1024v1024h-1024zM330.577 205.686c-82.362 0-149.127 66.765-149.127 149.127s66.765 149.127 149.127 149.127 149.127-66.765 149.127-149.127-66.765-149.127-149.127-149.127zM693.423 205.686c-82.362 0-149.127 66.765-149.127 149.127s66.765 149.127 149.127 149.127 149.127-66.765 149.127-149.127-66.769-149.127-149.127-149.127z" />
<glyph unicode="&#xe902;" glyph-name="youtube" data-tags="youtube" d="M984.087 650.463c-36.963 43.94-105.208 61.863-235.54 61.863h-473.105c-133.315 0-202.716-19.079-239.54-65.86-35.903-45.611-35.903-112.815-35.903-205.827v-177.281c0-180.194 42.598-271.684 275.443-271.684h473.108c113.023 0 175.652 15.816 216.17 54.592 41.551 39.764 59.28 104.689 59.28 217.091v177.281c0 98.089-2.778 165.69-39.913 209.824zM657.411 327.523l-214.835-112.28c-4.803-2.51-10.055-3.756-15.301-3.756-5.939 0-11.865 1.599-17.114 4.776-9.883 5.989-15.918 16.701-15.918 28.256v223.84c0 11.535 6.018 22.237 15.882 28.229 9.867 5.992 22.138 6.402 32.375 1.083l214.835-111.557c10.93-5.675 17.794-16.959 17.811-29.27 0.013-12.321-6.821-23.621-17.735-29.323z" />
</font>
</defs>
</svg>
