<?xml version="1.0" encoding="utf-8"?>
<!-- Generator: Adobe Illustrator 21.1.0, SVG Export Plug-In . SVG Version: 6.00 Build 0)  -->
<svg version="1.1" id="Layer_1" xmlns="http://www.w3.org/2000/svg" xmlns:xlink="http://www.w3.org/1999/xlink" x="0px" y="0px"
	 width="20px" height="20px" viewBox="0 0 20 20" style="enable-background:new 0 0 20 20;" xml:space="preserve">
<style type="text/css">
	.st0{fill:#FFFFFF;}
	.st1{fill:#010101;}
	.st2{fill:#515567;}
</style>
<path class="st0" d="M10.8,13.1l0,2c2.1-0.3,3.8-2,4.2-4.2h-2C12.7,12,11.8,12.8,10.8,13.1z"/>
<path class="st1" d="M14.9,9.5c0,0,0-0.1,0-0.1L14.9,9.5L14.9,9.5z"/>
<path class="st0" d="M7,10.9l-1.9,0c0.3,2.2,2.1,3.9,4.2,4.2l0-2C8.2,12.9,7.3,12,7,10.9z"/>
<path class="st0" d="M9.3,7.1l0-1.9c-2.2,0.3-3.9,2-4.2,4.2l1.9,0C7.3,8.3,8.2,7.4,9.3,7.1z"/>
<path class="st0" d="M14.9,9.3l0-4.9l0-2.5c-0.8-0.5-1.6-0.8-2.5-1V3l0,2.8C13.8,6.5,14.7,7.8,14.9,9.3z"/>
<path class="st0" d="M12.5,8.3C12.7,8.7,12.9,9,13,9.5l2,0V9.3c-0.2-1.5-1.2-2.8-2.5-3.5c-0.5-0.3-1.1-0.5-1.7-0.6v1.9
	C11.5,7.3,12,7.8,12.5,8.3z"/>
<path class="st0" d="M10.1,19.6c5.2,0,9.5-4.3,9.5-9.5c0-3.5-1.9-6.5-4.7-8.2l0,2.5c1.6,1.4,2.6,3.4,2.6,5.7c0,3.9-3,7.1-6.8,7.4
	c-0.2,0-0.5,0-0.7,0c-0.3,0-0.5,0-0.7,0c-3.8-0.4-6.7-3.6-6.7-7.4c0-4.1,3.2-7.4,7.3-7.4v-2c-5.2,0.1-9.3,4.3-9.3,9.5
	C0.6,15.3,4.8,19.6,10.1,19.6z"/>
</svg>
