<?xml version="1.0" encoding="utf-8"?>
<!-- Generator: Adobe Illustrator 21.1.0, SVG Export Plug-In . SVG Version: 6.00 Build 0)  -->
<svg version="1.1" id="Layer_1" xmlns="http://www.w3.org/2000/svg" xmlns:xlink="http://www.w3.org/1999/xlink" x="0px" y="0px"
	 viewBox="0 0 302.4 305.4" style="enable-background:new 0 0 302.4 305.4;" xml:space="preserve">
<style type="text/css">
	.st0{fill:#F600D4;}
	.st1{fill:#E3D443;}
	.st2{fill:#5C83F1;}
	.st3{fill:#505466;}
</style>
<path class="st0" d="M160.9,196.4V227c33-5,59.2-31.1,64.1-64.1h-30.7C190,179.2,177.2,192.1,160.9,196.4z"/>
<path d="M225.1,140.9c-0.1-0.6-0.2-1.2-0.3-1.8v1.8H225.1z"/>
<path class="st1" d="M103.4,162.9l-29.7,0c5,33.4,31.6,59.7,65.1,64.3v-30.3C121.6,193.1,107.9,179.9,103.4,162.9z"/>
<path class="st2" d="M138.9,105l0-29.3c-33.8,4.6-60.6,31.4-65.3,65.3l29.3,0C106.8,123,120.9,108.9,138.9,105z"/>
<path class="st3" d="M224.9,139.1l0-75.6l0-38.6c-11.7-7-24.5-12.3-38-15.8v32.8l0,42.9C206.7,95.9,221.1,115.7,224.9,139.1z"/>
<path class="st3" d="M186.9,123.3c3.8,5.2,6.5,11.2,7.9,17.6h30.1v-1.8c-3.8-23.4-18.1-43.2-38-54.4c-7.9-4.5-16.7-7.6-26-9l0,29.7
	C171.5,108.3,180.6,114.6,186.9,123.3z"/>
<path class="st3" d="M150.4,296.4c80.6,0,146-65.4,146-146c0-53.4-28.7-100.1-71.5-125.6l0,38.6c24.5,21,40,52.2,40,86.9
	c0,59.7-45.7,108.7-104,114c-3.5,0.3-7,0.5-10.5,0.5c-3.9,0-7.7-0.2-11.5-0.6c-57.8-5.8-103-54.6-103-113.9
	c0-62.4,49.9-113.1,112-114.5l0-31.5C68.4,5.8,4.4,70.6,4.4,150.4C4.4,231,69.7,296.4,150.4,296.4z"/>
</svg>
