<?xml version="1.0" encoding="utf-8"?>
<!-- Generator: Adobe Illustrator 21.1.0, SVG Export Plug-In . SVG Version: 6.00 Build 0)  -->
<svg version="1.1" id="Layer_1" xmlns="http://www.w3.org/2000/svg" xmlns:xlink="http://www.w3.org/1999/xlink" x="0px" y="0px"
	 width="512px" height="512px" viewBox="0 0 512 512" style="enable-background:new 0 0 512 512;" xml:space="preserve">
<style type="text/css">
	.st0{fill:#07B591;}
</style>
<path class="st0" d="M360.7,166c-24.5,0-47.4,6.5-67.2,17.9V65.8h-67.2v106.1c15.5,8.1,29.4,18.8,41,31.6
	c10.9,12,19.7,25.8,26.2,40.9c3.4,8,6.1,16.5,8,25.2c11.4-21,33.6-35.3,59.1-35.3c37.1,0,67.2,30.1,67.2,67.2s-30.1,67.2-67.2,67.2
	c-25.4,0-47.6-14.1-59-35v89.6c17.8,8.7,37.8,13.6,59,13.6c74.7,0,135.3-60.6,135.3-135.3C496,226.6,435.4,166,360.7,166z"/>
<path class="st0" d="M259.9,211.1c-9.6-10.8-21-19.9-33.6-27.2c-19.8-11.3-42.7-17.9-67.2-17.9s-47.4,6.5-67.2,17.9v-12.1V166H24.8
	v78.3v41.1v31.8v41.1v77.3H92v-4.8v-12.1V301.4c0-37.1,30.1-67.2,67.2-67.2c34,0,62.1,25.3,66.6,58.1c0.4,3,0.6,6,0.6,9.1v15.9
	v101.5v12.1v4.8h67.2v-16.9v-60.4v-41.1v-15.9v-15.9C290.2,257,278,231.3,259.9,211.1z"/>
<g>
</g>
<g>
</g>
<g>
</g>
<g>
</g>
<g>
</g>
<g>
</g>
</svg>
