<?xml version="1.0" encoding="utf-8"?>
<!-- Generator: Adobe Illustrator 21.1.0, SVG Export Plug-In . SVG Version: 6.00 Build 0)  -->
<svg version="1.1" id="Layer_1" xmlns="http://www.w3.org/2000/svg" xmlns:xlink="http://www.w3.org/1999/xlink" x="0px" y="0px"
	 width="20px" height="20px" viewBox="0 0 20 20" style="enable-background:new 0 0 20 20;" xml:space="preserve">
<style type="text/css">
	.st0{fill:#C74A9B;}
	.st1{fill:#010101;}
	.st2{fill:#E3D443;}
	.st3{fill:#647DBE;}
	.st4{fill:#515567;}
</style>
<path class="st0" d="M10.6,13l0,2c2.2-0.3,3.9-2.1,4.3-4.3h-2C12.6,11.8,11.7,12.7,10.6,13z"/>
<path class="st1" d="M14.9,9.3c0,0,0-0.1,0-0.1L14.9,9.3L14.9,9.3z"/>
<path class="st2" d="M6.8,10.8h-2C5.2,13,7,14.7,9.2,15v-2C8,12.8,7.1,11.9,6.8,10.8z"/>
<path class="st3" d="M9.2,6.9l0-1.9c-2.2,0.3-4,2.1-4.3,4.3l1.9,0C7,8.1,8,7.2,9.2,6.9z"/>
<path class="st4" d="M14.9,9.2l0-5l0-2.6c-0.8-0.5-1.6-0.8-2.5-1l0,2.2l0,2.8C13.7,6.3,14.6,7.6,14.9,9.2z"/>
<path class="st4" d="M12.4,8.1c0.3,0.3,0.4,0.7,0.5,1.2l2,0V9.2c-0.3-1.5-1.2-2.9-2.5-3.6c-0.5-0.3-1.1-0.5-1.7-0.6l0,2
	C11.3,7.1,11.9,7.6,12.4,8.1z"/>
<path class="st4" d="M9.9,19.6c5.4,0,9.7-4.3,9.7-9.7c0-3.5-1.9-6.6-4.7-8.3l0,2.6c1.6,1.4,2.7,3.5,2.7,5.8c0,4-3,7.2-6.9,7.6
	c-0.2,0-0.5,0-0.7,0c-0.3,0-0.5,0-0.8,0c-3.8-0.4-6.8-3.6-6.8-7.6c0-4.1,3.3-7.5,7.4-7.6l0-2.1C4.5,0.3,0.3,4.6,0.3,9.9
	C0.2,15.3,4.6,19.6,9.9,19.6z"/>
</svg>
