<?xml version="1.0" encoding="utf-8"?>
<!-- Generator: Adobe Illustrator 21.1.0, SVG Export Plug-In . SVG Version: 6.00 Build 0)  -->
<svg version="1.1" id="Layer_1" xmlns="http://www.w3.org/2000/svg" xmlns:xlink="http://www.w3.org/1999/xlink" x="0px" y="0px"
	 width="20px" height="20px" viewBox="0 0 20 20" style="enable-background:new 0 0 20 20;" xml:space="preserve">
<style type="text/css">
	.st0{fill:#FFFFFF;}
</style>
<path class="st0" d="M14.1,6.6c-1,0-1.9,0.3-2.7,0.7V2.5H8.6v4.3c0.6,0.3,1.2,0.8,1.7,1.3c0.4,0.5,0.8,1,1.1,1.7
	c0.1,0.3,0.2,0.7,0.3,1c0.5-0.8,1.4-1.4,2.4-1.4c1.5,0,2.7,1.2,2.7,2.7s-1.2,2.7-2.7,2.7c-1,0-1.9-0.6-2.4-1.4v3.6
	c0.7,0.3,1.5,0.5,2.4,0.5c3,0,5.5-2.4,5.5-5.5C19.5,9,17.1,6.6,14.1,6.6z"/>
<path class="st0" d="M10,8.4C9.6,7.9,9.1,7.6,8.6,7.3C7.8,6.8,6.9,6.6,5.9,6.6S4,6.8,3.2,7.3V6.8V6.6H0.5v3.2v1.7v1.3v1.7v3.1h2.7
	v-0.2v-0.5V12c0-1.5,1.2-2.7,2.7-2.7c1.4,0,2.5,1,2.7,2.3c0,0.1,0,0.2,0,0.4v0.6v4.1v0.5v0.2h2.7v-0.7v-2.4v-1.7V12v-0.6
	C11.2,10.2,10.7,9.2,10,8.4z"/>
<g>
</g>
<g>
</g>
<g>
</g>
<g>
</g>
<g>
</g>
<g>
</g>
</svg>
